# xmcd CD database file
#
# Track frame offsets:
#	150
#	27277
#	63002
#	76327
#	114002
#	125927
#	149882
#	162240
#	191695
#	194225
#	209730
#	231870
#	245882
#
# Disc length: 3842 seconds
#
# Revision: 0
# Processed by: cddbd v1.4PL0 Copyright (c) Steve Scherf et al.
# Submitted via: CDex 1.50
#
DISCID=cb0f000d
DTITLE=Iks - Abstr/Cncr
DYEAR=2003
DGENRE=Jazz
TTITLE0=Glas Synthétique
TTITLE1=Déplaçant Mers et Monts
TTITLE2=La Carcasse
TTITLE3=Slide...
TTITLE4=Carte Postale
TTITLE5=Le Chat
TTITLE6=Deux Vies (Une Rencontre)
TTITLE7=Cortège
TTITLE8=La Poursuite-Survie, Lot Quotidien
TTITLE9=La Nécropole Violée
TTITLE10=Les Tournesols
TTITLE11=Les Tournesols
TTITLE12=Boléro (Vague
EXTD=YEAR: 2003
EXTT0=
EXTT1=
EXTT2=
EXTT3=
EXTT4=
EXTT5=
EXTT6=
EXTT7=
EXTT8=
EXTT9=
EXTT10=
EXTT11=
EXTT12=
PLAYORDER=
